PathFileType	4	(X/Y/Z)	/Users/itak/Documents/Research/Walk-IL/dataset/trc/00532_00183.trc
DataRate	CameraRate	NumFrames	NumMarkers	Units	OrigDataRate	OrigDataStartFrame	OrigNumFrames
100.000000	100.000000	4	53	mm	100.000000	433	495
Frame#	Time	RPSI			LPSI			L3			STRN			T10			C7			CLAV			RBAK			LBAK			LSHO			LUPA			LAEL			LAOL			LWTS			LWPS			LFRA			LIFD			LHPS			LHTS			RSHO			RUPA			RAEL			RAOL			RWTS			RWPS			RFRA			RIFD			RHTS			RHPS			RBHD			LFHD			RFHD			LBHD			LHIP			RHIP			RASI			LASI			LKNE			LTHI			LANK			LTIP			LTOE			LMT1			LMT5			LHEE			RKNE			RTHI			RANK			RTIP			RTOE			RMT1			RMT5			RHEE			
		X1	Y1	Z1	X2	Y2	Z2	X3	Y3	Z3	X4	Y4	Z4	X5	Y5	Z5	X6	Y6	Z6	X7	Y7	Z7	X8	Y8	Z8	X9	Y9	Z9	X10	Y10	Z10	X11	Y11	Z11	X12	Y12	Z12	X13	Y13	Z13	X14	Y14	Z14	X15	Y15	Z15	X16	Y16	Z16	X17	Y17	Z17	X18	Y18	Z18	X19	Y19	Z19	X20	Y20	Z20	X21	Y21	Z21	X22	Y22	Z22	X23	Y23	Z23	X24	Y24	Z24	X25	Y25	Z25	X26	Y26	Z26	X27	Y27	Z27	X28	Y28	Z28	X29	Y29	Z29	X30	Y30	Z30	X31	Y31	Z31	X32	Y32	Z32	X33	Y33	Z33	X34	Y34	Z34	X35	Y35	Z35	X36	Y36	Z36	X37	Y37	Z37	X38	Y38	Z38	X39	Y39	Z39	X40	Y40	Z40	X41	Y41	Z41	X42	Y42	Z42	X43	Y43	Z43	X44	Y44	Z44	X45	Y45	Z45	X46	Y46	Z46	X47	Y47	Z47	X48	Y48	Z48	X49	Y49	Z49	X50	Y50	Z50	X51	Y51	Z51	X52	Y52	Z52	X53	Y53	Z53	

434	4.33	874.1505737304688	959.1265869140625	589.771484375	947.0888671875	954.611572265625	487.5191955566406	899.96142578125	1011.153015136719	524.2845458984375	1075.172241210938	1195.172607421875	627.3533325195312	873.704833984375	1117.656372070312	516.7755737304688	895.7636108398438	1350.291015625	529.3184814453125	1037.703735351562	1286.771240234375	604.3319702148438	822.0557250976562	1226.58203125	588.6312255859375	918.9947509765625	1292.838012695312	444.1655578613281	1032.404052734375	1346.698364257812	420.4089965820312	1055.023193359375	1220.409301757812	362.1734619140625	1082.207641601562	1012.136291503906	342.3926696777344	990.7847900390625	999.1972045898438	379.6776733398438	1145.044311523438	817.3298950195312	400.6308898925781	1084.692626953125	788.0155029296875	334.5122985839844	1097.369873046875	925.9688110351562	344.2635803222656	1135.769775390625	660.0093383789062	404.4635314941406	1103.064453125	732.2160034179688	344.8193359375	1155.82763671875	739.3782958984375	382.5813903808594	874.7831420898438	1352.833862304688	685.4991455078125	836.03662109375	1286.528930664062	731.6560668945312	829.7881469726562	1022.716430664062	791.765869140625	808.2930297851562	999.5917358398438	732.5015869140625	943.2973022460938	839.3257446289062	849.4752807617188	860.0340576171875	804.754150390625	839.0269165039062	833.4609375	969.5359497070312	804.5582885742188	962.7705688476562	682.92431640625	876.2420043945312	950.8880615234375	751.7498779296875	889.9143676757812	887.3306274414062	737.1862182617188	863.9557495117188	863.3439331054688	1498.713500976562	596.7982788085938	1034.279418945312	1591.737426757812	548.8184814453125	959.3284912109375	1583.994873046875	651.7705078125	947.8897705078125	1501.42236328125	462.0380859375	1109.47509765625	879.1008911132812	442.8125	891.59033203125	861.6553955078125	754.2667236328125	1009.949829101562	906.4273681640625	755.5399169921875	1144.014526367188	916.3057250976562	552.748291015625	1073.149536132812	458.4759826660156	494.8216552734375	1109.9677734375	614.2181396484375	480.8768615722656	951.7081298828125	42.59269332885742	443.8788757324219	1038.176635742188	309.1534729003906	474.2442321777344	1089.221923828125	27.95773696899414	600.4306030273438	1002.868713378906	32.54982757568359	586.0346069335938	1046.83740234375	34.46502685546875	494.3370666503906	880.6983642578125	40.03496551513672	470.5544738769531	896.1055297851562	473.7937316894531	727.9235229492188	909.8003540039062	733.5516357421875	772.18701171875	853.5496826171875	42.15558624267578	663.9222412109375	901.373779296875	331.7532653808594	709.2535400390625	1050.353393554688	32.46354675292969	726.0123291015625	1009.436767578125	37.43318557739258	659.7473754882812	945.559326171875	37.86468124389648	731.7442626953125	830.4133911132812	34.00559616088867	597.165283203125	
435	4.34	874.579345703125	959.2758178710938	590.158935546875	947.4703369140625	954.7432250976562	488.0154724121094	900.459228515625	1011.493408203125	524.7710571289062	1076.044921875	1194.920288085938	628.2713623046875	874.6864013671875	1118.041870117188	517.458251953125	897.1663818359375	1350.64013671875	530.3599853515625	1038.809204101562	1286.659423828125	605.3802490234375	823.100830078125	1226.979125976562	589.4072875976562	920.2537231445312	1293.27392578125	445.2323303222656	1033.83740234375	1346.9443359375	421.5379638671875	1055.50634765625	1220.699584960938	362.9192810058594	1080.581665039062	1012.292907714844	342.185546875	989.2747192382812	1000.03076171875	380.0993957519531	1141.503051757812	816.360107421875	399.3684387207031	1080.50439453125	788.0753784179688	333.4058837890625	1094.807373046875	925.9307250976562	343.595458984375	1130.439575195312	659.1441650390625	402.4625244140625	1098.310302734375	732.0570068359375	343.2504272460938	1151.253540039062	738.3584594726562	380.8785095214844	875.9596557617188	1352.925048828125	686.5621948242188	837.0780029296875	1286.5986328125	732.62060546875	830.661865234375	1022.759033203125	792.9816284179688	809.0861206054688	999.6087646484375	733.4885864257812	944.6450805664062	839.712646484375	850.392822265625	861.3239135742188	804.9500122070312	840.1632690429688	834.4039306640625	969.589111328125	805.5247802734375	964.310546875	683.3505249023438	877.3768310546875	952.4240112304688	752.2163696289062	890.95947265625	888.68408203125	737.4033813476562	865.1011352539062	864.1492919921875	1498.341796875	597.7609252929688	1034.78125	1592.1474609375	550.0192260742188	959.6964111328125	1584.0810546875	652.86328125	948.9468994140625	1501.313720703125	463.19970703125	1109.829833984375	879.0145874023438	443.3852844238281	891.6393432617188	861.527587890625	754.62060546875	1009.969909667969	906.1845703125	756.0272216796875	1144.307373046875	916.0853881835938	553.380859375	1073.22021484375	458.4128723144531	495.1676330566406	1110.088256835938	614.1369018554688	481.2924194335938	951.6298828125	42.56730651855469	443.9634704589844	1038.179809570312	309.1042175292969	474.4614868164062	1089.1865234375	27.95060539245605	600.4747314453125	1002.828430175781	32.50223159790039	586.0565795898438	1046.80224609375	34.46555709838867	494.3690185546875	880.6439208984375	39.99094772338867	470.5964050292969	896.0878295898438	473.6669006347656	728.1035766601562	909.7474975585938	733.3966064453125	772.4559326171875	853.5651245117188	42.15124893188477	663.8893432617188	901.3186645507812	331.6340026855469	709.36865234375	1050.355590820312	32.45944976806641	726	1009.432983398438	37.41704177856445	659.7377319335938	945.5650634765625	37.88491821289062	731.7203979492188	830.4197998046875	33.97034072875977	597.1390380859375	
436	4.350000000000001	874.8485107421875	959.450927734375	590.5567626953125	947.7843627929688	954.8849487304688	488.4721374511719	900.7940063476562	1011.876403808594	525.2772216796875	1076.884399414062	1194.704711914062	629.1519165039062	875.6402587890625	1118.4599609375	518.1399536132812	898.5294189453125	1351.02197265625	531.383544921875	1039.878662109375	1286.577880859375	606.3970336914062	824.1055297851562	1227.3935546875	590.1826171875	921.4381713867188	1293.735107421875	446.2910461425781	1035.195678710938	1347.221923828125	422.6392822265625	1055.894775390625	1221.024780273438	363.6418762207031	1078.916381835938	1012.5126953125	341.9716186523438	987.7462158203125	1000.907104492188	380.5150756835938	1138.162719726562	815.6400756835938	398.1745300292969	1076.557250976562	788.2538452148438	332.4210815429688	1092.288208007812	925.9901733398438	342.9617004394531	1125.604370117188	658.5408935546875	400.6473999023438	1093.878173828125	732.059326171875	341.8318176269531	1146.989868164062	737.6080932617188	379.2840270996094	877.1112670898438	1353.039306640625	687.6170654296875	838.0899658203125	1286.701049804688	733.584716796875	831.4449462890625	1022.8251953125	794.0949096679688	809.8185424804688	999.6673583984375	734.3602905273438	945.7850952148438	840.0250854492188	851.153076171875	862.40771484375	805.131103515625	841.1651611328125	835.2178344726562	969.63427734375	806.3914794921875	965.5703125	683.6768188476562	878.2816162109375	953.7200317382812	752.5783081054688	891.8135375976562	889.7092895507812	737.4849853515625	865.9899291992188	864.9713134765625	1498.036987304688	598.6888427734375	1035.327880859375	1592.537231445312	551.1830444335938	960.104736328125	1584.211669921875	653.906005859375	950.0299682617188	1501.216918945312	464.3122253417969	1110.140869140625	878.95361328125	443.920166015625	891.666015625	861.4373779296875	754.95947265625	1009.985229492188	905.9942626953125	756.4968872070312	1144.5439453125	915.8953857421875	553.9727783203125	1073.267578125	458.3679504394531	495.4739379882812	1110.157104492188	614.0790405273438	481.6655883789062	951.5821533203125	42.56146621704102	444.0243225097656	1038.162353515625	309.0693359375	474.6585998535156	1089.153442382812	27.94438552856445	600.512939453125	1002.78759765625	32.45819473266602	586.0709228515625	1046.773681640625	34.46779251098633	494.3960571289062	880.60009765625	39.96246337890625	470.6310119628906	896.1763916015625	473.5518493652344	728.3038940429688	909.600830078125	733.2604370117188	772.6963500976562	853.5877075195312	42.15575408935547	663.8533935546875	901.3983154296875	331.5122375488281	709.4793090820312	1050.3505859375	32.45287704467773	725.9848022460938	1009.427368164062	37.39669799804688	659.72802734375	945.5729370117188	37.90899658203125	731.693115234375	830.4298706054688	33.94602203369141	597.1135864257812	
437	4.36	874.9723510742188	959.6356811523438	590.9561767578125	948.0186767578125	955.0324096679688	488.8977355957031	900.9772338867188	1012.297973632812	525.8079223632812	1077.690673828125	1194.52197265625	629.9942016601562	876.5494384765625	1118.90673828125	518.8204345703125	899.8392944335938	1351.425537109375	532.3995361328125	1040.911743164062	1286.519775390625	607.38134765625	825.0732421875	1227.814575195312	590.961181640625	922.547119140625	1294.216796875	447.3377380371094	1036.473266601562	1347.521606445312	423.7098999023438	1056.189697265625	1221.371826171875	364.3398132324219	1077.230346679688	1012.7822265625	341.7724304199219	986.2158813476562	1001.807495117188	380.9323120117188	1135.047607421875	815.1416015625	397.0477600097656	1072.864013671875	788.5277709960938	331.5596008300781	1089.838012695312	926.1359252929688	342.3811950683594	1121.243408203125	658.158447265625	399.0208740234375	1089.778930664062	732.193115234375	340.5680236816406	1143.05712890625	737.09375	377.801513671875	878.2413330078125	1353.170288085938	688.66650390625	839.0757446289062	1286.8271484375	734.548095703125	832.1375732421875	1022.906677246094	795.0868530273438	810.4794311523438	999.76513671875	735.1310424804688	946.7252807617188	840.2598266601562	851.762451171875	863.3031616210938	805.2924194335938	842.039794921875	835.9154663085938	969.6703491210938	807.1661987304688	966.5720825195312	683.9075927734375	878.9684448242188	954.785400390625	752.83642578125	892.484375	890.4520874023438	737.4553833007812	866.645751953125	865.8164672851562	1497.799926757812	599.584716796875	1035.92138671875	1592.898071289062	552.3074951171875	960.5568237304688	1584.384765625	654.8985595703125	951.1325073242188	1501.138427734375	465.3720092773438	1110.404052734375	878.9183959960938	444.4158935546875	891.667236328125	861.3837890625	755.2836303710938	1010.004455566406	905.8507080078125	756.9497680664062	1144.736328125	915.7322387695312	554.5264892578125	1073.292846679688	458.3359680175781	495.7356872558594	1110.182006835938	614.0386962890625	481.9949951171875	951.5655517578125	42.58029937744141	444.0574340820312	1038.126342773438	309.0452575683594	474.8365173339844	1089.12451171875	27.93907928466797	600.541259765625	1002.750610351562	32.42083358764648	586.0799560546875	1046.75146484375	34.47116470336914	494.4180603027344	880.5658569335938	39.94418716430664	470.6577453613281	896.3497924804688	473.4479064941406	728.5137329101562	909.3502197265625	733.1381225585938	772.9096069335938	853.6165161132812	42.16756057739258	663.8145751953125	901.6008911132812	331.3940124511719	709.585205078125	1050.33544921875	32.44435882568359	725.9667358398438	1009.419372558594	37.37121963500977	659.71923828125	945.5821533203125	37.9371337890625	731.6629028320312	830.443359375	33.93174362182617	597.0886840820312	
